<svg xmlns="http://www.w3.org/2000/svg" width="56" height="56" viewBox="0 0 56 56">
    <defs>
        <style>
            .cls-2{fill:#222}
        </style>
    </defs>
    <g id="ic_pop" transform="translate(0 -39)">
        <g id="Icon" transform="translate(-351 -261)">
            <g id="그룹_5433">
                <g id="그룹_5432">
                    <path id="패스_1244" d="M399 320v30h-40v-30h40m2-2h-44v34h44v-34z" class="cls-2"/>
                </g>
            </g>
            <g id="그룹_5434">
                <path id="사각형_1126" d="M0 0H2V33H0z" class="cls-2" transform="translate(378 319)"/>
            </g>
            <path id="패스_1245" fill="#5865f5" d="M394 312a8 8 0 0 0-15-3.87 8 8 0 1 0-7 11.87h3.15l-7.775 6.219 1.25 1.562L378.35 320h1.3l9.725 7.781 1.25-1.562L382.85 320H386a8 8 0 0 0 8-8zm-16 6h-6a6 6 0 1 1 6-6zm2 0v-6a6 6 0 1 1 6 6z"/>
        </g>
    </g>
</svg>
