<svg xmlns="http://www.w3.org/2000/svg" width="56" height="56" viewBox="0 0 56 56">
    <g>
        <path fill="rgba(255,255,255,0)" d="M0 0H56V56H0z" transform="translate(0 2.988) translate(0 -2.988)"/>
        <g>
            <g fill="none">
                <path d="M5.705 6.753h33l5.295 12H0z" transform="translate(0 2.988) translate(-892.387 -604.113) translate(898.387 631.372)"/>
                <path fill="#222" d="M6.81 8.503l-4.04 8.5h38.545l-3.75-8.5H6.81m-1.106-1.75h33l5.295 12H0l5.705-12z" transform="translate(0 2.988) translate(-892.387 -604.113) translate(898.387 631.372)"/>
            </g>
            <g fill="#f4f4f4" stroke-width="1.75px">
                <path stroke="#222" d="M923.435 614.463a13.085 13.085 0 0 0-13 13.167 16.883 16.883 0 0 0 1.041 5.847c1.944 6.224 11.268 14.56 11.959 15.343.689-.785 10-9.111 11.948-15.312a16.882 16.882 0 0 0 1.052-5.877 13.084 13.084 0 0 0-13-13.168z" transform="translate(0 2.988) translate(-892.387 -604.113) translate(1) translate(-4.048 -6.338)"/>
                <path stroke="#5865f5" d="M924.091 633.687a5.155 5.155 0 1 1 5.2-5.155 5.281 5.281 0 0 1-1.506 3.628 5.048 5.048 0 0 1-3.694 1.527z" transform="translate(0 2.988) translate(-892.387 -604.113) translate(1) translate(-4.652 -7.192)"/>
            </g>
        </g>
    </g>
</svg>
