<svg xmlns="http://www.w3.org/2000/svg" width="23" height="54" viewBox="0 0 23 54">
  <g fill="none" fill-rule="evenodd">
    <path fill="#333" d="M23,27.998 L22,27.998 L22,38.666 C22,39.873 21.468,40.954 20.73,41.737 C20.69,41.779 20.535,42 20.535,42 C20.535,42 19.126,44.107 18.799,44.67 C17.865,46.26 18.121,48.889 18.006,49.427 C17.886,50.011 17.46,50.382 16.848,50.571 C15.822,50.888 13.001,51 11,51 C9,51 6.213,50.888 5.187,50.571 C4.575,50.382 4.045,50.048 3.925,49.464 C3.692,48.336 3.823,47.161 3.641,46.001 C3.276,43.686 2.569,42.96 1.386,41.873 C0.433,40.998 0.005,39.879 0.005,38.667 L0,21.333 C0,20.065 0.509,18.938 1.312,18.147 C1.362,18.097 1.772,17.642 1.772,17.642 C1.772,17.642 3.261,16.279 3.655,13.199 C3.753,12.437 3.839,11.111 3.954,10.573 C4.073,9.989 4.5,9.618 5.112,9.429 C6.138,9.112 9,9 11,9 C13,9 15.519,9.235 16.45,9.369 C17.296,9.491 17.956,9.887 18.134,10.772 C18.365,11.929 18.28,13.123 18.554,14.273 C18.806,15.33 19.274,16.331 19.862,17.241 C20.289,17.903 21.005,18.484 21.402,19.168 C21.786,19.827 21.998,20.566 21.996,21.332 L21.989,23 L23,23 L23,27.998 Z M21,38.667 L21,21.333 C21,19.538 19.652,17.998 17.996,17.998 L3.996,17.998 C2.339,17.998 1,19.538 1,21.333 L1,38.667 C1,40.462 2.339,42 3.996,42 L17.996,42 C19.652,42 21,40.462 21,38.667 Z"/>
    <path fill="#333" fill-opacity=".352" d="M21,38.6672777 C21,40.4621282 19.652,42 17.996,42 L3.996,42 C2.339,42 1,40.4621282 1,38.6672777 L1,21.3347221 C1,19.5398717 2.339,18 3.996,18 L17.996,18 C19.652,18 21,19.5398717 21,21.3347221 L21,38.6672777 Z"/>
  </g>
</svg>
