<svg xmlns="http://www.w3.org/2000/svg" width="49" height="54" viewBox="0 0 49 54">
  <g fill="none" fill-rule="evenodd">
    <path fill="#333" d="M35.5,51 L13.5,51 C12.947,51 12.5,50.553 12.5,50 C12.5,49.447 12.947,49 13.5,49 L35.5,49 C36.053,49 36.5,49.447 36.5,50 C36.5,50.553 36.053,51 35.5,51 M46.12,19 L3,19 C1.9,19 1,19.9 1,21 L1,45.96 C1,47.06 1.9,47.96 3,47.96 L46,47.96 C47.1,47.96 48,47.06 48,45.96 L48,20.88 C48,19.846 47.154,19 46.12,19 M3,46 L46,46 L46,21 L3,21 L3,46 Z"/>
    <polygon fill="#333" fill-opacity=".352" points="3 46 46 46 46 21 3 21"/>
  </g>
</svg>
