<svg xmlns="http://www.w3.org/2000/svg" width="48" height="54" viewBox="0 0 48 54">
  <g fill="none" fill-rule="evenodd">
    <path fill="#333" d="M46.469,11 C47.169,11 48,11.833 48,12.531 L48,42.469 C48,43.166 47.169,44 46.469,44 L27,44 L27.892,48.119 C28.194,49.489 29.457,50.392 30.82,50.307 C30.845,50.308 30.863,50.31 30.889,50.311 C31.081,50.311 31.235,50.465 31.235,50.656 C31.235,50.81 31.132,50.936 30.991,50.979 C30.979,50.986 30.964,50.992 30.949,50.994 L30.949,51 L17.2,51 L17.053,51 L17.053,50.994 C17.039,50.992 17.026,50.986 17.011,50.979 C16.872,50.936 16.768,50.81 16.768,50.656 C16.768,50.465 16.922,50.311 17.113,50.311 C17.14,50.31 17.159,50.308 17.183,50.307 C18.547,50.392 19.808,49.489 20.11,48.119 L21,44 L1.572,44 C0.872,44 0.042,43.166 0.042,42.469 L0,12.531 C0,11.833 0.831,11 1.531,11 L46.469,11 Z M24.946,41.828 C24.975,41.769 25.001,41.704 25.022,41.64 C24.916,41.594 24.833,41.522 24.774,41.43 C24.714,41.336 24.685,41.234 24.685,41.122 C24.685,41.015 24.707,40.92 24.748,40.842 C24.792,40.762 24.861,40.693 24.956,40.636 C24.904,40.558 24.833,40.497 24.746,40.45 C24.656,40.402 24.564,40.38 24.466,40.38 C24.429,40.38 24.394,40.384 24.358,40.392 C24.324,40.399 24.279,40.414 24.22,40.434 C24.161,40.456 24.114,40.473 24.082,40.483 C24.052,40.495 24.03,40.501 24.018,40.501 C23.983,40.501 23.922,40.481 23.835,40.443 C23.746,40.406 23.669,40.388 23.604,40.388 C23.515,40.388 23.433,40.406 23.358,40.443 C23.283,40.481 23.217,40.533 23.16,40.603 C23.104,40.67 23.058,40.752 23.026,40.844 C22.994,40.937 22.978,41.039 22.978,41.148 C22.978,41.22 22.986,41.292 22.999,41.367 C23.011,41.443 23.029,41.517 23.051,41.59 C23.074,41.665 23.104,41.735 23.135,41.806 C23.169,41.874 23.203,41.937 23.242,41.995 C23.284,42.058 23.322,42.108 23.358,42.149 C23.392,42.192 23.423,42.226 23.454,42.25 C23.485,42.274 23.515,42.293 23.544,42.304 C23.572,42.313 23.6,42.318 23.632,42.318 C23.652,42.318 23.682,42.313 23.715,42.304 C23.747,42.293 23.784,42.281 23.824,42.269 C23.863,42.256 23.902,42.244 23.942,42.232 C23.98,42.221 24.017,42.216 24.05,42.216 C24.081,42.216 24.114,42.221 24.153,42.23 C24.19,42.243 24.228,42.253 24.265,42.266 C24.302,42.277 24.338,42.289 24.374,42.3 C24.409,42.311 24.439,42.315 24.464,42.315 C24.503,42.315 24.54,42.308 24.575,42.289 C24.612,42.271 24.646,42.245 24.682,42.216 C24.699,42.197 24.725,42.169 24.757,42.131 C24.787,42.093 24.819,42.047 24.853,41.995 C24.885,41.945 24.916,41.889 24.946,41.828 Z M23.995,40.306 C23.995,40.323 23.995,40.336 23.996,40.343 C23.997,40.353 24.009,40.356 24.033,40.356 C24.091,40.356 24.148,40.342 24.204,40.311 C24.261,40.281 24.311,40.24 24.355,40.188 C24.4,40.137 24.435,40.079 24.461,40.015 C24.488,39.948 24.502,39.883 24.502,39.818 L24.502,39.791 C24.502,39.784 24.501,39.775 24.498,39.766 C24.433,39.77 24.368,39.786 24.307,39.819 C24.246,39.853 24.192,39.896 24.147,39.944 C24.1,39.997 24.065,40.055 24.037,40.117 C24.009,40.181 23.995,40.243 23.995,40.306 Z M2,38 L46,38 L46,13 L2,13 L2,38 Z"/>
    <path fill="#333" fill-opacity=".352" d="M2,38 L2,13 L46,13 L46,38 L2,38 Z M23.995,40.306 C23.995,40.243 24.009,40.181 24.037,40.117 C24.065,40.055 24.1,39.997 24.147,39.944 C24.192,39.896 24.246,39.853 24.307,39.819 C24.368,39.786 24.433,39.77 24.498,39.766 C24.501,39.775 24.502,39.784 24.502,39.791 L24.502,39.818 C24.502,39.883 24.488,39.948 24.461,40.015 C24.435,40.079 24.4,40.137 24.355,40.188 C24.311,40.24 24.261,40.281 24.204,40.311 C24.148,40.342 24.091,40.356 24.033,40.356 C24.009,40.356 23.997,40.353 23.996,40.343 C23.995,40.336 23.995,40.323 23.995,40.306 Z M24.946,41.828 C24.916,41.889 24.885,41.945 24.853,41.995 C24.819,42.047 24.787,42.093 24.757,42.131 C24.725,42.169 24.699,42.197 24.682,42.216 C24.646,42.245 24.612,42.271 24.575,42.289 C24.54,42.308 24.503,42.315 24.464,42.315 C24.439,42.315 24.409,42.311 24.374,42.3 C24.338,42.289 24.302,42.277 24.265,42.266 C24.228,42.253 24.19,42.243 24.153,42.23 C24.114,42.221 24.081,42.216 24.05,42.216 C24.017,42.216 23.98,42.221 23.942,42.232 C23.902,42.244 23.863,42.256 23.824,42.269 C23.784,42.281 23.747,42.293 23.715,42.304 C23.682,42.313 23.652,42.318 23.632,42.318 C23.6,42.318 23.572,42.313 23.544,42.304 C23.515,42.293 23.485,42.274 23.454,42.25 C23.423,42.226 23.392,42.192 23.358,42.149 C23.322,42.108 23.284,42.058 23.242,41.995 C23.203,41.937 23.169,41.874 23.135,41.806 C23.104,41.735 23.074,41.665 23.051,41.59 C23.029,41.517 23.011,41.443 22.999,41.367 C22.986,41.292 22.978,41.22 22.978,41.148 C22.978,41.039 22.994,40.937 23.026,40.844 C23.058,40.752 23.104,40.67 23.16,40.603 C23.217,40.533 23.283,40.481 23.358,40.443 C23.433,40.406 23.515,40.388 23.604,40.388 C23.669,40.388 23.746,40.406 23.835,40.443 C23.922,40.481 23.983,40.501 24.018,40.501 C24.03,40.501 24.052,40.495 24.082,40.483 C24.114,40.473 24.161,40.456 24.22,40.434 C24.279,40.414 24.324,40.399 24.358,40.392 C24.394,40.384 24.429,40.38 24.466,40.38 C24.564,40.38 24.656,40.402 24.746,40.45 C24.833,40.497 24.904,40.558 24.956,40.636 C24.861,40.693 24.792,40.762 24.748,40.842 C24.707,40.92 24.685,41.015 24.685,41.122 C24.685,41.234 24.714,41.336 24.774,41.43 C24.833,41.522 24.916,41.594 25.022,41.64 C25.001,41.704 24.975,41.769 24.946,41.828 Z"/>
  </g>
</svg>
