<?xml version="1.0" encoding="UTF-8"?>
<svg width="31px" height="43px" viewBox="0 0 31 43" version="1.1" xmlns="http://www.w3.org/2000/svg" xmlns:xlink="http://www.w3.org/1999/xlink">
    <!-- Generator: Sketch 55.2 (78181) - https://sketchapp.com -->
    <title>ipad</title>
    <desc>Created with Sketch.</desc>
    <g id="Light" stroke="none" stroke-width="1" fill="none" fill-rule="evenodd">
        <g id="ipad" fill="#333333" fill-rule="nonzero">
            <path d="M2.45085949,0 L28.4912415,0 C29.8448138,0 30.942101,1.09728717 30.942101,2.45085949 L30.942101,39.8264666 C30.942101,41.180039 29.8448138,42.2773261 28.4912415,42.2773261 L2.45085949,42.2773261 C1.09728717,42.2773261 0,41.180039 0,39.8264666 L0,2.45085949 C0,1.09728717 1.09728717,0 2.45085949,0 Z M2.45085949,1.53178718 C1.94326988,1.53178718 1.53178718,1.94326988 1.53178718,2.45085949 L1.53178718,39.8264666 C1.53178718,40.3340562 1.94326988,40.7455389 2.45085949,40.7455389 L28.4912415,40.7455389 C28.9988311,40.7455389 29.4103138,40.3340562 29.4103138,39.8264666 L29.4103138,2.45085949 C29.4103138,1.94326988 28.9988311,1.53178718 28.4912415,1.53178718 L2.45085949,1.53178718 Z" id="Combined-Shape"></path>
            <path d="M2.45085949,1.53178718 C1.94326988,1.53178718 1.53178718,1.94326988 1.53178718,2.45085949 L1.53178718,39.8264666 C1.53178718,40.3340562 1.94326988,40.7455389 2.45085949,40.7455389 L28.4912415,40.7455389 C28.9988311,40.7455389 29.4103138,40.3340562 29.4103138,39.8264666 L29.4103138,2.45085949 C29.4103138,1.94326988 28.9988311,1.53178718 28.4912415,1.53178718 L2.45085949,1.53178718 Z" id="Rectangle-Copy-3-path" fill-opacity="0.25"></path>
        </g>
    </g>
</svg>