<svg xmlns="http://www.w3.org/2000/svg" width="20" height="54" viewBox="0 0 20 54">
  <g fill="none" fill-rule="evenodd">
    <path fill="#333" d="M17,51 L3,51 C1.356,51 0,49.655 0,48.012 L0,25.121 L0,15.463 L0,12.988 C0,11.345 1.345,10 2.988,10 L17.012,10 C18.655,10 20,11.345 20,12.988 L20,19.396 L20,24.139 L20,48.012 C20,49.655 18.643,51 17,51 Z M13.976,13 L6.024,13 C5.296,13 5.066,12.563 5,12.169 C4.991,12.113 5.003,11.385 5,11.361 C4.971,11.111 4.707,11.022 4.561,11 L2.801,11 C1.81,11 1,11.811 1,12.801 L1,48.199 C1,49.189 1.81,50 2.801,50 L17.199,50 C18.189,50 19,49.189 19,48.199 L19,12.801 C19,11.811 18.189,11 17.199,11 L15.438,11 C15.293,11.022 15.029,11.111 15,11.361 C14.997,11.385 15.009,12.113 15,12.169 C14.934,12.563 14.704,13 13.976,13 Z M8.279,11.666 L8.279,11.695 C8.279,11.737 8.285,11.879 8.467,11.879 L11.212,11.879 C11.393,11.879 11.399,11.737 11.399,11.695 L11.399,11.666 C11.399,11.625 11.393,11.483 11.212,11.483 L8.467,11.483 C8.285,11.483 8.279,11.625 8.279,11.666 Z M12.6,11.301 C12.39,11.301 12.219,11.471 12.219,11.681 C12.219,11.892 12.39,12.062 12.6,12.062 C12.81,12.062 12.981,11.892 12.981,11.681 C12.981,11.471 12.81,11.301 12.6,11.301 Z"/>
    <path fill="#333" fill-opacity=".352" d="M13.976,13 C14.704,13 14.934,12.563 15,12.169 C15.009,12.113 14.997,11.385 15,11.361 C15.029,11.111 15.293,11.022 15.438,11 L17.199,11 C18.189,11 19,11.811 19,12.801 L19,48.199 C19,49.189 18.189,50 17.199,50 L2.801,50 C1.81,50 1,49.189 1,48.199 L1,12.801 C1,11.811 1.81,11 2.801,11 L4.561,11 C4.707,11.022 4.971,11.111 5,11.361 C5.003,11.385 4.991,12.113 5,12.169 C5.066,12.563 5.296,13 6.024,13 L13.976,13 Z"/>
    <path fill="#333" fill-opacity=".352" d="M8.279 11.666C8.279 11.625 8.285 11.483 8.467 11.483L11.212 11.483C11.393 11.483 11.399 11.625 11.399 11.666L11.399 11.695C11.399 11.737 11.393 11.879 11.212 11.879L8.467 11.879C8.285 11.879 8.279 11.737 8.279 11.695L8.279 11.666zM12.6 11.301C12.81 11.301 12.981 11.471 12.981 11.681 12.981 11.892 12.81 12.062 12.6 12.062 12.39 12.062 12.219 11.892 12.219 11.681 12.219 11.471 12.39 11.301 12.6 11.301z"/>
  </g>
</svg>
